<?xml version="1.0" standalone="no"?><!DOCTYPE svg PUBLIC "-//W3C//DTD SVG 1.1//EN" "http://www.w3.org/Graphics/SVG/1.1/DTD/svg11.dtd"><svg t="1564372991361" class="icon" viewBox="0 0 1024 1024" version="1.1" xmlns="http://www.w3.org/2000/svg" p-id="1823" xmlns:xlink="http://www.w3.org/1999/xlink" width="128" height="128"><defs><style type="text/css"></style></defs><path d="M309.061818 300.683636l82.850909 331.403637h2.792728l86.574545-331.403637H549.236364l86.574545 331.403637h2.792727l82.850909-331.403637h73.541819L672.116364 726.109091h-68.887273l-86.574546-328.610909h-2.792727L427.287273 726.109091h-69.818182L235.52 300.683636h73.541818z" fill="#FFFFFF" p-id="1824"></path><path d="M0 0v1024h1024V0H0z m672.116364 726.109091h-68.887273l-86.574546-328.610909h-2.792727L427.287273 726.109091h-69.818182L235.52 300.683636h73.541818l82.850909 331.403637h2.792728l86.574545-331.403637H549.236364l86.574545 331.403637h2.792727l82.850909-331.403637h73.541819L672.116364 726.109091z" fill="#2C579B" p-id="1825"></path></svg>