<?xml version="1.0" standalone="no"?><!DOCTYPE svg PUBLIC "-//W3C//DTD SVG 1.1//EN" "http://www.w3.org/Graphics/SVG/1.1/DTD/svg11.dtd"><svg t="1564375625332" class="icon" viewBox="0 0 1024 1024" version="1.1" xmlns="http://www.w3.org/2000/svg" p-id="2703" xmlns:xlink="http://www.w3.org/1999/xlink" width="128" height="128"><defs><style type="text/css"></style></defs><path d="M379.810909 390.050909v32.581818h-83.781818V642.327273h-38.167273V422.632727h-84.712727v-32.581818h206.661818zM440.32 390.050909l61.44 91.229091 61.44-91.229091h47.476364L525.032727 512l91.229091 130.327273h-47.476363l-67.956364-100.538182L434.734545 642.327273h-47.476363l91.229091-130.327273-84.712728-121.949091h46.545455zM830.370909 390.050909v32.581818h-83.781818V642.327273h-38.167273V422.632727H623.709091v-32.581818h206.661818z" fill="#FFFFFF" p-id="2704"></path><path d="M0 0v1024h1024V0H0z m379.810909 422.632727h-83.781818V642.327273h-38.167273V422.632727h-84.712727v-32.581818h206.661818v32.581818zM569.716364 642.327273l-67.956364-100.538182L434.734545 642.327273h-47.476363l91.229091-130.327273-84.712728-121.949091h47.476364l61.44 91.229091 61.44-91.229091h47.476364L525.032727 512l91.229091 130.327273h-46.545454z m260.654545-219.694546h-83.781818V642.327273h-38.167273V422.632727H623.709091v-32.581818h206.661818v32.581818z" fill="#2C579B" p-id="2705"></path></svg>