<?xml version="1.0" standalone="no"?><!DOCTYPE svg PUBLIC "-//W3C//DTD SVG 1.1//EN" "http://www.w3.org/Graphics/SVG/1.1/DTD/svg11.dtd"><svg t="1564372404629" class="icon" viewBox="0 0 1024 1024" version="1.1" xmlns="http://www.w3.org/2000/svg" p-id="1537" width="128" height="128" xmlns:xlink="http://www.w3.org/1999/xlink"><defs><style type="text/css"></style></defs><path d="M604.16 309.992727c-22.341818-20.48-52.130909-30.72-90.298182-30.72-39.098182 0-70.749091 12.101818-94.952727 35.374546-24.203636 24.203636-37.236364 51.2-37.236364 81.92 0 19.549091 9.309091 28.858182 30.72 28.858182 19.549091 0 28.858182-9.309091 30.72-29.789091 0-16.756364 6.516364-30.72 19.549091-41.890909 12.101818-12.101818 28.858182-17.687273 49.338182-17.687273 20.48 0 36.305455 5.585455 48.407273 14.894545 12.101818 10.24 17.687273 25.134545 17.687272 42.821818 0 7.447273-0.930909 13.963636-1.861818 19.549091-0.930909 5.585455-3.723636 11.170909-7.447272 16.756364-3.723636 5.585455-8.378182 11.170909-14.894546 17.687273-5.585455 5.585455-13.963636 13.032727-23.272727 22.341818-20.48 19.549091-35.374545 39.098182-45.614546 57.716364-10.24 18.618182-14.894545 38.167273-14.894545 56.785454 0 6.516364 0 12.101818 0.930909 16.756364 0.930909 3.723636 1.861818 7.447273 3.723636 9.309091 1.861818 1.861818 4.654545 3.723636 8.378182 4.654545 4.654545 0.930909 10.24 1.861818 18.618182 1.861818 18.618182 0 27.927273-10.24 27.927273-32.581818 0-7.447273 0.930909-13.963636 1.861818-20.48 0.930909-6.516364 3.723636-13.032727 7.447273-18.618182 3.723636-6.516364 9.309091-13.032727 15.825454-21.410909 6.516364-7.447273 15.825455-16.756364 27.927273-27.927273 18.618182-17.687273 32.581818-34.443636 41.890909-50.26909 8.378182-14.894545 13.032727-31.650909 13.032727-49.338182 0-36.305455-11.170909-66.094545-33.512727-86.574546zM531.549091 662.807273c-3.723636-3.723636-8.378182-6.516364-13.963636-9.309091-5.585455-1.861818-10.24-3.723636-16.756364-3.723637-5.585455 0-11.170909 0.930909-16.756364 3.723637-5.585455 1.861818-9.309091 5.585455-13.963636 9.309091-3.723636 3.723636-7.447273 8.378182-9.309091 13.032727-1.861818 4.654545-3.723636 10.24-3.723636 15.825455 0 5.585455 0.930909 11.170909 3.723636 15.825454 1.861818 4.654545 5.585455 9.309091 9.309091 13.032727 3.723636 3.723636 8.378182 6.516364 13.963636 9.309091 5.585455 1.861818 10.24 3.723636 16.756364 3.723637 5.585455 0 11.170909-0.930909 16.756364-3.723637 5.585455-1.861818 9.309091-5.585455 13.963636-9.309091 3.723636-3.723636 7.447273-8.378182 9.309091-13.032727 1.861818-4.654545 3.723636-10.24 3.723636-15.825454 0-5.585455-0.930909-11.170909-3.723636-15.825455-1.861818-4.654545-4.654545-9.309091-9.309091-13.032727z" fill="#FFFFFF" p-id="1538"></path><path d="M0 0v1024h1024V0H0z m540.858182 708.421818c-1.861818 4.654545-5.585455 9.309091-9.309091 13.032727-3.723636 3.723636-8.378182 6.516364-13.963636 9.309091-5.585455 1.861818-10.24 3.723636-16.756364 3.723637-5.585455 0-11.170909-0.930909-16.756364-3.723637-5.585455-1.861818-9.309091-5.585455-13.963636-9.309091-3.723636-3.723636-7.447273-8.378182-9.309091-13.032727-1.861818-4.654545-3.723636-10.24-3.723636-15.825454 0-5.585455 0.930909-11.170909 3.723636-15.825455 1.861818-4.654545 5.585455-9.309091 9.309091-13.032727 3.723636-3.723636 8.378182-6.516364 13.963636-9.309091 5.585455-1.861818 10.24-3.723636 16.756364-3.723636 5.585455 0 11.170909 0.930909 16.756364 3.723636 5.585455 1.861818 9.309091 5.585455 13.963636 9.309091 3.723636 3.723636 7.447273 8.378182 9.309091 13.032727 1.861818 4.654545 3.723636 10.24 3.723636 15.825455 0 5.585455-0.930909 11.170909-3.723636 15.825454z m82.850909-260.654545c-9.309091 15.825455-23.272727 32.581818-41.890909 50.269091-11.170909 11.170909-21.410909 20.48-27.927273 27.927272-7.447273 7.447273-12.101818 14.894545-15.825454 21.410909-3.723636 6.516364-5.585455 13.032727-7.447273 18.618182-0.930909 5.585455-1.861818 13.032727-1.861818 20.48 0 22.341818-9.309091 32.581818-27.927273 32.581818-8.378182 0-13.963636-0.930909-18.618182-1.861818-3.723636-0.930909-6.516364-2.792727-8.378182-4.654545-1.861818-1.861818-3.723636-5.585455-3.723636-9.309091-0.930909-4.654545-0.930909-10.24-0.930909-16.756364 0-18.618182 4.654545-38.167273 14.894545-56.785454 10.24-19.549091 25.134545-39.098182 45.614546-57.716364 9.309091-9.309091 17.687273-16.756364 23.272727-22.341818 6.516364-6.516364 11.170909-12.101818 14.894545-17.687273 3.723636-5.585455 6.516364-11.170909 7.447273-16.756363 0.930909-5.585455 1.861818-12.101818 1.861818-19.549091 0-18.618182-5.585455-32.581818-17.687272-42.821819-11.170909-10.24-27.927273-14.894545-48.407273-14.894545s-37.236364 5.585455-49.338182 16.756364c-12.101818 11.170909-19.549091 25.134545-19.549091 40.96-0.930909 20.48-10.24 29.789091-30.72 29.789091-20.48 0-30.72-9.309091-30.72-28.858182 0-30.72 12.101818-57.716364 37.236364-81.92 24.203636-23.272727 55.854545-35.374545 94.952727-35.374546 38.167273 0 68.887273 10.24 90.298182 30.72 22.341818 20.48 33.512727 50.269091 33.512727 87.505455 0.930909 17.687273-3.723636 34.443636-13.032727 50.269091z" fill="#C2CCD3" p-id="1539"></path></svg>