<?xml version="1.0" standalone="no"?><!DOCTYPE svg PUBLIC "-//W3C//DTD SVG 1.1//EN" "http://www.w3.org/Graphics/SVG/1.1/DTD/svg11.dtd"><svg t="1564374605718" class="icon" viewBox="0 0 1024 1024" version="1.1" xmlns="http://www.w3.org/2000/svg" p-id="2448" xmlns:xlink="http://www.w3.org/1999/xlink" width="128" height="128"><defs><style type="text/css"></style></defs><path d="M546.443636 668.392727h-66.094545v-33.512727h66.094545v33.512727zM446.836364 601.367273v99.607272h133.12V567.854545h-67.025455v33.512728H446.836364z m0-33.512728h66.094545v-33.512727H446.836364V567.854545z m66.094545-32.581818h66.094546v-33.512727h-66.094546v33.512727zM446.836364 501.76h66.094545v-33.512727H446.836364v33.512727z m66.094545-33.512727h66.094546v-33.512728h-66.094546v33.512728zM446.836364 434.734545h66.094545v-33.512727H446.836364v33.512727z m66.094545-32.581818h66.094546v-33.512727h-66.094546v33.512727zM446.836364 368.64h66.094545V335.127273H446.836364v33.512727z m67.025454-33.512727h66.094546v-33.512728h-66.094546V335.127273zM446.836364 302.545455h66.094545v-33.512728H446.836364v33.512728z" fill="#FFFFFF" p-id="2449"></path><path d="M512.930909 402.152727h67.025455v-33.512727h-67.025455zM446.836364 368.64h66.094545V335.127273H446.836364zM513.861818 269.032727h66.094546v-33.512727h-66.094546z" fill="#FFFFFF" p-id="2450"></path><path d="M451.490909 237.381818h66.094546V204.8h-66.094546z" fill="#FFFFFF" p-id="2451"></path><path d="M480.349091 634.88h66.094545v33.512727h-66.094545z" fill="#F07900" p-id="2452"></path><path d="M0 0v1024h1024V0H0z m451.490909 204.8h66.094546v30.72h62.370909v33.512727h-66.094546v-30.72h-62.370909V204.8z m128.465455 197.352727h-66.094546v33.512728h66.094546v33.512727h-66.094546V502.690909h66.094546v33.512727h-66.094546V567.854545h66.094546v133.12H446.836364V601.367273h66.094545V567.854545H446.836364v-33.512727h66.094545v-33.512727H446.836364v-33.512727h66.094545v-33.512728H446.836364V400.290909h66.094545v-33.512727H446.836364V335.127273h66.094545v33.512727h66.094546v33.512727z m0-67.025454h-66.094546v-33.512728H446.836364v-33.512727h66.094545v33.512727h66.094546V335.127273z" fill="#F07900" p-id="2453"></path></svg>