<?xml version="1.0" standalone="no"?><!DOCTYPE svg PUBLIC "-//W3C//DTD SVG 1.1//EN" "http://www.w3.org/Graphics/SVG/1.1/DTD/svg11.dtd"><svg t="1576045112924" class="icon" viewBox="0 0 1024 1024" version="1.1" xmlns="http://www.w3.org/2000/svg" p-id="1990" xmlns:xlink="http://www.w3.org/1999/xlink" width="200" height="200"><defs><style type="text/css"></style></defs><path d="M442.755575 1019.709497H182.465073A112.268156 112.268156 0 0 1 70.196916 907.441341V112.268156A112.268156 112.268156 0 0 1 182.465073 0h394.011173a34.324022 34.324022 0 0 1 24.312849 10.011173L856.789095 251.709497a35.75419 35.75419 0 0 1 11.441341 25.743017v232.402235a36.469274 36.469274 0 0 1-35.75419 35.75419 35.75419 35.75419 0 0 1-35.75419-35.75419v-214.52514L562.17457 71.50838H182.465073a40.044693 40.044693 0 0 0-40.759777 40.759776v795.173185a40.759777 40.759777 0 0 0 40.759777 40.759776h260.290502a35.75419 35.75419 0 0 1 35.75419 35.75419 35.75419 35.75419 0 0 1-35.75419 35.75419z" fill="#ffffff" p-id="1991"></path><path d="M563.604737 338.234637a35.75419 35.75419 0 0 1-35.75419-35.75419V42.905028a35.75419 35.75419 0 0 1 35.75419-35.75419 35.75419 35.75419 0 0 1 35.75419 35.75419v259.575419a35.75419 35.75419 0 0 1-35.75419 35.75419z" fill="#ffffff" p-id="1992"></path><path d="M819.604737 338.234637H563.604737a35.75419 35.75419 0 0 1-35.75419-35.75419 35.75419 35.75419 0 0 1 35.75419-35.75419h256a35.75419 35.75419 0 0 1 35.75419 35.75419 35.75419 35.75419 0 0 1-35.75419 35.75419zM585.057251 1024a42.189944 42.189944 0 0 1-14.301676-3.575419 35.75419 35.75419 0 0 1-19.307262-32.178771V517.72067A35.75419 35.75419 0 0 1 570.755575 485.541899a36.469274 36.469274 0 0 1 37.184358 0l331.083799 235.26257a36.469274 36.469274 0 0 1 0 58.636872l-333.22905 238.122905a37.184358 37.184358 0 0 1-20.737431 6.435754z m35.75419-436.916201v331.798883l235.977654-165.899442z" fill="#ffffff" p-id="1993"></path></svg>