<?xml version="1.0" standalone="no"?><!DOCTYPE svg PUBLIC "-//W3C//DTD SVG 1.1//EN" "http://www.w3.org/Graphics/SVG/1.1/DTD/svg11.dtd"><svg t="1568973246841" class="icon" viewBox="0 0 1024 1024" version="1.1" xmlns="http://www.w3.org/2000/svg" p-id="23437" xmlns:xlink="http://www.w3.org/1999/xlink" width="200" height="200"><defs><style type="text/css"></style></defs><path d="M153.6 630.3l89.6-119.467-179.2-0.466z" p-id="23438" fill="#637078"></path><path d="M542.468 93.867C311.964 93.543 124.88 279.738 123.747 509.9h59.733c0.27-47.667 9.725-93.879 28.127-137.387 18.048-42.671 43.899-81.006 76.833-113.94s71.269-58.785 113.94-76.833c44.147-18.672 91.077-28.14 139.487-28.14s95.34 9.468 139.487 28.14c42.671 18.048 81.006 43.899 113.94 76.833s58.785 71.269 76.833 113.94C890.8 416.66 900.267 463.59 900.267 512s-9.468 95.34-28.14 139.487c-18.048 42.671-43.899 81.006-76.833 113.94s-71.269 58.784-113.94 76.833c-44.147 18.672-91.077 28.14-139.487 28.14s-95.34-9.468-139.487-28.14a356.78 356.78 0 0 1-69.051-38.717l107.797-232.976h197.477s80.3 179.2 81.357 179.2c0 0 43.061-42.875 42.647-43.874L568.591 238.02c-4.091-13.101-15.408-19.652-26.725-19.652-11.317 0-22.634 6.551-26.724 19.652L284.214 768.486l-13.39 30.757c-5.995 13.771-1.957 29.811 9.762 39.205a419.117 419.117 0 0 0 27.283 20.116c66.775 45.179 147.302 71.569 233.997 71.569 230.928 0 418.132-187.204 418.133-418.131 0.002-231.085-186.446-417.81-417.531-418.135z m-0.601 237.766l70.196 179.2H468.764l73.103-179.2z" p-id="23439" fill="#637078"></path></svg>