<?xml version="1.0" standalone="no"?><!DOCTYPE svg PUBLIC "-//W3C//DTD SVG 1.1//EN" "http://www.w3.org/Graphics/SVG/1.1/DTD/svg11.dtd"><svg t="1575619739025" class="icon" viewBox="0 0 1024 1024" version="1.1" xmlns="http://www.w3.org/2000/svg" p-id="3447" xmlns:xlink="http://www.w3.org/1999/xlink" width="200" height="200"><defs><style type="text/css"></style></defs><path d="M752 808.8v43.84l48-48v-43.84z" fill="#ffffff" p-id="3448"></path><path d="M950.72 609.76l-88.48-88.48a30.88 30.88 0 0 0-44.16 0L752 587.36 558.08 781.12a34.4 34.4 0 0 0-8 13.28L515.52 912l-2.24 7.84A32 32 0 0 0 544 960a35.68 35.68 0 0 0 8.96-1.28l125.28-36.96a27.52 27.52 0 0 0 13.28-8l1.76-1.76 25.92-25.76L740.48 864l11.52-11.52 48-48 128-128 22.08-22.24a31.04 31.04 0 0 0 0.64-44.48zM668.64 891.84L600 912 544 928l4.96-16 32-108.8L608 775.68 696.32 864zM800 760.8l-81.44 81.44-88.64-88.64 166.08-166.08 4 4.48 84.48 84.64z m106.56-106.72l-88.48-88.64L840.16 544 928 631.84z" fill="#ffffff" p-id="3449"></path><path d="M800 128v328a24 24 0 0 1-48 0V128a16 16 0 0 0-16-16H128a16 16 0 0 0-16 16v768a16 16 0 0 0 16 16h328a24 24 0 0 1 0 48H128a64 64 0 0 1-64-64V128a64 64 0 0 1 64-64h608a64 64 0 0 1 64 64z" fill="#ffffff" p-id="3450"></path><path d="M176 240m24 0l464 0q24 0 24 24l0 0q0 24-24 24l-464 0q-24 0-24-24l0 0q0-24 24-24Z" fill="#ffffff" p-id="3451"></path><path d="M176 416m24 0l464 0q24 0 24 24l0 0q0 24-24 24l-464 0q-24 0-24-24l0 0q0-24 24-24Z" fill="#ffffff" p-id="3452"></path><path d="M176 592m24 0l208 0q24 0 24 24l0 0q0 24-24 24l-208 0q-24 0-24-24l0 0q0-24 24-24Z" fill="#ffffff" p-id="3453"></path></svg>