<?xml version="1.0" standalone="no"?><!DOCTYPE svg PUBLIC "-//W3C//DTD SVG 1.1//EN" "http://www.w3.org/Graphics/SVG/1.1/DTD/svg11.dtd"><svg t="1564372247224" class="icon" viewBox="0 0 1024 1024" version="1.1" xmlns="http://www.w3.org/2000/svg" p-id="1151" xmlns:xlink="http://www.w3.org/1999/xlink" width="48" height="48"><defs><style type="text/css"></style></defs><path d="M361.192727 407.738182c18.618182 14.894545 29.789091 35.374545 33.512728 60.509091h-37.236364c-4.654545-16.756364-12.101818-29.789091-24.203636-38.167273-12.101818-8.378182-26.996364-12.101818-45.614546-12.101818-26.996364 0-47.476364 9.309091-61.44 27.927273-13.032727 16.756364-19.549091 40.029091-19.549091 69.818181 0 30.72 6.516364 53.992727 19.549091 70.749091 13.032727 17.687273 34.443636 26.065455 62.370909 26.065455 18.618182 0 33.512727-4.654545 45.614546-13.963637 13.032727-10.24 21.410909-25.134545 26.065454-44.683636h37.236364c-5.585455 29.789091-18.618182 52.130909-40.029091 68.887273-19.549091 15.825455-42.821818 23.272727-69.818182 23.272727-40.96 0-72.610909-13.032727-93.090909-40.029091-18.618182-22.341818-26.996364-53.061818-26.996364-91.229091 0-37.236364 9.309091-67.956364 27.927273-91.229091 21.410909-26.996364 51.2-40.029091 92.16-40.029091 29.789091 0.930909 53.992727 8.378182 73.541818 24.203637zM594.850909 404.014545c17.687273 13.032727 27.927273 33.512727 29.789091 60.509091H586.472727c-3.723636-15.825455-10.24-27.927273-19.549091-35.374545-10.24-7.447273-24.203636-11.170909-42.821818-11.170909-16.756364 0-29.789091 2.792727-38.167273 7.447273-11.170909 5.585455-15.825455 14.894545-15.825454 27.927272 0 11.170909 5.585455 20.48 18.618182 26.996364 5.585455 2.792727 20.48 8.378182 43.752727 15.825454 33.512727 10.24 55.854545 18.618182 66.094545 25.134546 21.410909 13.032727 32.581818 30.72 32.581819 54.923636 0 22.341818-8.378182 40.029091-26.065455 53.061818-17.687273 13.032727-42.821818 19.549091-74.472727 19.549091-30.72 0-54.923636-6.516364-72.610909-18.618181-20.48-14.894545-32.581818-38.167273-34.443637-69.818182h38.167273c2.792727 19.549091 10.24 34.443636 21.410909 42.821818 10.24 7.447273 26.065455 12.101818 47.476364 12.101818 19.549091 0 34.443636-3.723636 45.614545-10.24 11.170909-6.516364 16.756364-14.894545 16.756364-26.065454 0-13.963636-8.378182-25.134545-24.203636-33.512728-5.585455-2.792727-22.341818-8.378182-50.269091-16.756363-30.72-10.24-50.269091-16.756364-57.716364-20.48-19.549091-12.101818-28.858182-28.858182-28.858182-50.269091 0-22.341818 9.309091-40.029091 27.927273-52.130909 17.687273-12.101818 40.029091-17.687273 67.025454-17.687273 27.927273-3.723636 51.2 2.792727 67.956364 15.825454zM823.854545 404.014545c17.687273 13.032727 27.927273 33.512727 29.789091 60.509091h-38.167272c-3.723636-15.825455-10.24-27.927273-19.549091-35.374545-10.24-7.447273-24.203636-11.170909-42.821818-11.170909-16.756364 0-29.789091 2.792727-38.167273 7.447273-11.170909 5.585455-15.825455 14.894545-15.825455 27.927272 0 11.170909 5.585455 20.48 18.618182 26.996364 5.585455 2.792727 20.48 8.378182 43.752727 15.825454 33.512727 10.24 55.854545 18.618182 66.094546 25.134546 21.410909 13.032727 32.581818 30.72 32.581818 54.923636 0 22.341818-8.378182 40.029091-26.065455 53.061818-17.687273 13.032727-42.821818 19.549091-74.472727 19.549091-30.72 0-54.923636-6.516364-72.610909-18.618181-21.410909-15.825455-32.581818-39.098182-35.374545-71.68h38.167272c2.792727 19.549091 10.24 34.443636 21.410909 42.821818 10.24 7.447273 26.065455 12.101818 47.476364 12.101818 19.549091 0 34.443636-3.723636 45.614546-10.24 11.170909-6.516364 16.756364-14.894545 16.756363-26.065455 0-13.963636-8.378182-25.134545-24.203636-33.512727-5.585455-2.792727-22.341818-8.378182-50.269091-16.756364-30.72-10.24-50.269091-16.756364-57.716364-20.48-19.549091-12.101818-28.858182-28.858182-28.858182-50.26909 0-22.341818 9.309091-40.029091 27.927273-52.13091 17.687273-12.101818 40.029091-17.687273 67.025455-17.687272 28.858182-1.861818 52.130909 4.654545 68.887272 17.687272z" fill="#FFFFFF" p-id="1152"></path><path d="M0 0v1024h1024V0H0z m358.4 623.709091c-19.549091 15.825455-42.821818 23.272727-69.818182 23.272727-40.96 0-72.610909-13.032727-93.090909-40.029091-18.618182-22.341818-26.996364-53.061818-26.996364-91.229091 0-37.236364 9.309091-67.956364 27.927273-91.229091 21.410909-26.996364 51.2-40.029091 92.16-40.02909 29.789091 0 53.992727 7.447273 72.610909 23.272727 18.618182 14.894545 29.789091 35.374545 33.512728 60.509091h-37.236364c-4.654545-16.756364-12.101818-29.789091-24.203636-38.167273-12.101818-8.378182-26.996364-12.101818-45.614546-12.101818-26.996364 0-47.476364 9.309091-61.44 27.927273-13.032727 16.756364-19.549091 40.029091-19.549091 69.818181 0 30.72 6.516364 53.992727 19.549091 70.749091 13.032727 17.687273 34.443636 26.065455 62.370909 26.065455 18.618182 0 33.512727-4.654545 45.614546-13.963637 13.032727-10.24 21.410909-25.134545 26.065454-44.683636h37.236364c-4.654545 30.72-17.687273 53.061818-39.098182 69.818182z m245.76 4.654545c-17.687273 13.032727-42.821818 19.549091-74.472727 19.549091-30.72 0-54.923636-6.516364-72.610909-18.618182-20.48-14.894545-32.581818-38.167273-34.443637-69.818181h38.167273c2.792727 19.549091 10.24 34.443636 21.410909 42.821818 10.24 7.447273 26.065455 12.101818 47.476364 12.101818 19.549091 0 34.443636-3.723636 45.614545-10.24 11.170909-6.516364 16.756364-14.894545 16.756364-26.065455 0-13.963636-8.378182-25.134545-24.203637-33.512727-5.585455-2.792727-22.341818-8.378182-50.26909-16.756363-30.72-10.24-50.269091-16.756364-57.716364-20.48-19.549091-12.101818-28.858182-28.858182-28.858182-50.269091 0-22.341818 9.309091-40.029091 27.927273-52.130909 17.687273-12.101818 40.029091-17.687273 67.025454-17.687273 29.789091 0 52.130909 5.585455 68.887273 18.618182 17.687273 13.032727 27.927273 33.512727 29.789091 60.509091H586.472727c-3.723636-15.825455-10.24-27.927273-19.549091-35.374546-10.24-7.447273-24.203636-11.170909-42.821818-11.170909-16.756364 0-29.789091 2.792727-38.167273 7.447273-11.170909 5.585455-15.825455 14.894545-15.825454 27.927272 0 11.170909 5.585455 20.48 18.618182 26.996364 5.585455 2.792727 20.48 8.378182 43.752727 15.825455 33.512727 10.24 55.854545 18.618182 66.094545 25.134545 21.410909 13.032727 32.581818 30.72 32.581819 54.923636-0.930909 19.549091-9.309091 37.236364-26.996364 50.269091z m228.072727 0c-17.687273 13.032727-42.821818 19.549091-74.472727 19.549091-30.72 0-54.923636-6.516364-72.610909-18.618182-19.549091-14.894545-30.72-38.167273-33.512727-70.74909h38.167272c2.792727 19.549091 10.24 34.443636 21.410909 42.821818 10.24 7.447273 26.065455 12.101818 47.476364 12.101818 19.549091 0 34.443636-3.723636 45.614546-10.24 11.170909-6.516364 16.756364-14.894545 16.756363-26.065455 0-13.963636-8.378182-25.134545-24.203636-33.512727-5.585455-2.792727-22.341818-8.378182-50.269091-16.756364-30.72-10.24-50.269091-16.756364-57.716364-20.48-19.549091-12.101818-28.858182-28.858182-28.858182-50.26909 0-22.341818 9.309091-40.029091 27.927273-52.13091 17.687273-12.101818 40.029091-17.687273 67.025455-17.687272 29.789091 0 52.130909 5.585455 68.887272 18.618182 17.687273 13.032727 27.927273 33.512727 29.789091 60.50909h-38.167272c-3.723636-15.825455-10.24-27.927273-19.549091-35.374545-10.24-7.447273-24.203636-11.170909-42.821818-11.170909-16.756364 0-29.789091 2.792727-38.167273 7.447273-11.170909 5.585455-15.825455 14.894545-15.825455 27.927272 0 11.170909 5.585455 20.48 18.618182 26.996364 5.585455 2.792727 20.48 8.378182 43.752727 15.825455 33.512727 10.24 55.854545 18.618182 66.094546 25.134545 21.410909 13.032727 32.581818 30.72 32.581818 54.923636-0.930909 20.48-10.24 38.167273-27.927273 51.2z" fill="#F07900" p-id="1153"></path></svg>