<?xml version="1.0" standalone="no"?><!DOCTYPE svg PUBLIC "-//W3C//DTD SVG 1.1//EN" "http://www.w3.org/Graphics/SVG/1.1/DTD/svg11.dtd"><svg t="1564378568184" class="icon" viewBox="0 0 1024 1024" version="1.1" xmlns="http://www.w3.org/2000/svg" p-id="3338" xmlns:xlink="http://www.w3.org/1999/xlink" width="128" height="128"><defs><style type="text/css"></style></defs><path d="M602.298182 681.425455h-297.890909c-27.927273 0-51.2-23.272727-51.2-51.2V396.567273c0-28.858182 23.272727-52.130909 51.2-52.130909h297.890909c13.032727 0 26.996364 5.585455 36.305454 14.894545s14.894545 22.341818 14.894546 36.305455v26.996363l71.68-44.683636c9.309091-5.585455 20.48-5.585455 29.789091-0.930909 9.309091 5.585455 14.894545 14.894545 14.894545 26.065454v217.832728c0 10.24-5.585455 20.48-14.894545 26.065454-9.309091 5.585455-20.48 4.654545-29.789091 0l-71.68-44.683636v26.996363c0.930909 28.858182-22.341818 52.130909-51.2 52.13091zM305.338182 381.672727c-7.447273 0-13.963636 6.516364-13.963637 14.894546v233.658182c0 7.447273 6.516364 14.894545 13.963637 14.894545h297.890909c7.447273 0 13.963636-6.516364 13.963636-14.894545v-60.509091c0-6.516364 3.723636-13.032727 9.309091-15.825455 5.585455-3.723636 13.032727-2.792727 18.618182 0l87.505455 53.992727V417.978182l-87.505455 53.992727c-5.585455 3.723636-13.032727 3.723636-18.618182 0-5.585455-3.723636-9.309091-9.309091-9.309091-15.825454v-60.509091c0-3.723636-1.861818-7.447273-4.654545-10.24-2.792727-2.792727-6.516364-3.723636-9.309091-3.723637h-297.890909z m440.32 28.858182zM735.418182 394.705455z" fill="#FFFFFF" p-id="3339"></path><path d="M626.501818 472.901818c-5.585455-3.723636-9.309091-9.309091-9.309091-15.825454v-60.509091c0-3.723636-1.861818-7.447273-4.654545-10.24-2.792727-2.792727-6.516364-3.723636-9.309091-3.723637h-297.890909c-7.447273 0-13.963636 6.516364-13.963637 14.894546v233.658182c0 7.447273 6.516364 14.894545 13.963637 14.894545h297.890909c7.447273 0 13.963636-6.516364 13.963636-14.894545v-60.509091c0-6.516364 3.723636-13.032727 9.309091-15.825455 5.585455-3.723636 13.032727-2.792727 18.618182 0l87.505455 53.992727V417.978182l-87.505455 53.992727c-5.585455 3.723636-13.032727 4.654545-18.618182 0.930909z" fill="#C2CCD3" p-id="3340"></path><path d="M0 0v1024h1024V0H0z m769.861818 621.847273c0 10.24-5.585455 20.48-14.894545 26.065454-9.309091 5.585455-20.48 4.654545-29.789091 0l-71.68-44.683636v26.996364c0 28.858182-23.272727 52.130909-51.2 52.130909h-297.890909c-27.927273 0-51.2-23.272727-51.2-51.2V396.567273c0-28.858182 23.272727-52.130909 51.2-52.130909h297.890909c13.032727 0 26.996364 5.585455 36.305454 14.894545s14.894545 22.341818 14.894546 36.305455v26.996363l71.68-44.683636c9.309091-5.585455 20.48-5.585455 29.789091-0.930909 9.309091 5.585455 14.894545 14.894545 14.894545 26.065454v218.763637z" fill="#C2CCD3" p-id="3341"></path></svg>