<?xml version="1.0" standalone="no"?><!DOCTYPE svg PUBLIC "-//W3C//DTD SVG 1.1//EN" "http://www.w3.org/Graphics/SVG/1.1/DTD/svg11.dtd"><svg t="1564378385717" class="icon" viewBox="0 0 1024 1024" version="1.1" xmlns="http://www.w3.org/2000/svg" p-id="2829" xmlns:xlink="http://www.w3.org/1999/xlink" width="128" height="128"><defs><style type="text/css"></style></defs><path d="M296.96 390.050909c60.509091 0 90.298182 25.134545 90.298182 76.334546 0 51.2-30.72 77.265455-91.229091 77.265454h-65.163636V642.327273h-38.167273V390.050909h104.261818z m-66.094545 121.018182h63.301818c19.549091 0 32.581818-3.723636 41.890909-10.24 8.378182-7.447273 13.032727-18.618182 13.032727-33.512727 0-15.825455-4.654545-26.996364-13.032727-33.512728-8.378182-7.447273-22.341818-10.24-40.96-10.24h-63.301818v87.505455zM514.792727 390.050909c40.96 0 71.68 11.170909 93.090909 34.443636 19.549091 21.410909 29.789091 52.130909 29.789091 92.16 0 40.029091-10.24 70.749091-30.72 92.16-21.410909 22.341818-52.130909 33.512727-93.090909 33.512728h-91.229091V390.050909h92.16z m-53.061818 219.694546h45.614546c31.650909 0 55.854545-7.447273 70.74909-23.272728 14.894545-14.894545 22.341818-38.167273 22.341819-70.749091s-7.447273-55.854545-21.410909-70.749091c-14.894545-14.894545-38.167273-22.341818-69.818182-22.341818h-46.545455v187.112728zM848.058182 390.050909v32.581818H714.938182v73.541818h125.672727v32.581819H714.938182V642.327273h-38.167273V390.050909h171.287273z" fill="#FFFFFF" p-id="2830"></path><path d="M508.276364 422.632727h-46.545455v187.112728h45.614546c31.650909 0 55.854545-7.447273 70.74909-23.272728 14.894545-14.894545 22.341818-38.167273 22.341819-70.749091s-7.447273-55.854545-21.410909-70.749091c-15.825455-14.894545-39.098182-22.341818-70.749091-22.341818zM335.127273 432.872727c-8.378182-7.447273-22.341818-10.24-40.96-10.24h-63.301818v88.436364h63.301818c19.549091 0 32.581818-3.723636 41.890909-10.24 8.378182-7.447273 13.032727-18.618182 13.032727-33.512727 0-16.756364-4.654545-27.927273-13.963636-34.443637z" fill="#D24726" p-id="2831"></path><path d="M0 0v1024h1024V0H0z m296.029091 543.650909h-65.163636V642.327273h-38.167273V390.050909h104.261818c60.509091 0 90.298182 25.134545 90.298182 76.334546 0 52.130909-30.72 77.265455-91.229091 77.265454z m310.923636 65.163636c-21.410909 22.341818-52.130909 33.512727-93.090909 33.512728h-91.229091V390.050909h92.16c40.96 0 71.68 11.170909 93.090909 34.443636 19.549091 21.410909 29.789091 52.130909 29.789091 92.16 0 39.098182-10.24 69.818182-30.72 92.16z m241.105455-186.181818H714.938182v73.541818h125.672727v32.581819H714.938182V642.327273h-38.167273V390.050909h171.287273v32.581818z" fill="#D24726" p-id="2832"></path></svg>