<?xml version="1.0" standalone="no"?><!DOCTYPE svg PUBLIC "-//W3C//DTD SVG 1.1//EN" "http://www.w3.org/Graphics/SVG/1.1/DTD/svg11.dtd"><svg t="1564378394460" class="icon" viewBox="0 0 1024 1024" version="1.1" xmlns="http://www.w3.org/2000/svg" p-id="2956" xmlns:xlink="http://www.w3.org/1999/xlink" width="128" height="128"><defs><style type="text/css"></style></defs><path d="M775.447273 706.56H248.552727c-7.447273 0-13.963636-3.723636-16.756363-10.24s-1.861818-13.963636 2.792727-19.549091l151.738182-187.112727c3.723636-3.723636 8.378182-6.516364 13.963636-6.516364s10.24 1.861818 13.963636 5.585455l85.643637 85.643636L634.88 418.909091c3.723636-4.654545 10.24-7.447273 16.756364-6.516364 6.516364 0.930909 11.170909 4.654545 13.963636 10.24L791.272727 680.494545c2.792727 5.585455 2.792727 13.032727-0.930909 17.687273-2.792727 5.585455-8.378182 8.378182-14.894545 8.378182z m-487.796364-37.236364H744.727273L645.12 463.592727l-130.327273 149.876364c-3.723636 3.723636-8.378182 6.516364-13.032727 6.516364-4.654545 0-10.24-1.861818-13.963636-5.585455l-85.643637-85.643636-114.501818 140.567272z m40.029091-212.247272c-38.167273 0-69.818182-31.650909-69.818182-69.818182s31.650909-69.818182 69.818182-69.818182 69.818182 31.650909 69.818182 69.818182-31.650909 69.818182-69.818182 69.818182z m0-102.4c-17.687273 0-32.581818 14.894545-32.581818 32.581818s14.894545 32.581818 32.581818 32.581818 32.581818-14.894545 32.581818-32.581818c0-18.618182-14.894545-32.581818-32.581818-32.581818z" fill="#FFFFFF" p-id="2957"></path><path d="M517.585455 612.538182c-3.723636 3.723636-8.378182 6.516364-13.032728 6.516363-4.654545 0-10.24-1.861818-13.963636-5.585454l-85.643636-85.643636-114.501819 141.498181h457.076364L646.981818 463.592727l-129.396363 148.945455z" fill="#C2CCD3" p-id="2958"></path><path d="M329.541818 386.327273m-32.581818 0a32.581818 32.581818 0 1 0 65.163636 0 32.581818 32.581818 0 1 0-65.163636 0Z" fill="#C2CCD3" p-id="2959"></path><path d="M0 0v1024h1024V0H0z m329.541818 316.509091c38.167273 0 69.818182 31.650909 69.818182 69.818182S367.709091 456.145455 329.541818 456.145455s-69.818182-31.650909-69.818182-69.818182 31.650909-69.818182 69.818182-69.818182z m463.592727 380.741818c-3.723636 5.585455-9.309091 8.378182-15.825454 8.378182H251.345455c-7.447273 0-13.963636-3.723636-16.756364-10.24s-1.861818-13.963636 2.792727-19.549091l151.738182-187.112727c3.723636-3.723636 8.378182-6.516364 13.963636-6.516364s10.24 1.861818 13.963637 5.585455l85.643636 85.643636 134.981818-155.461818c3.723636-4.654545 10.24-7.447273 16.756364-6.516364 6.516364 0.930909 11.170909 4.654545 13.963636 10.24L794.065455 679.563636c2.792727 5.585455 2.792727 12.101818-0.93091 17.687273z" fill="#C2CCD3" p-id="2960"></path></svg>