<?xml version="1.0" standalone="no"?><!DOCTYPE svg PUBLIC "-//W3C//DTD SVG 1.1//EN" "http://www.w3.org/Graphics/SVG/1.1/DTD/svg11.dtd"><svg t="1564374436115" class="icon" viewBox="0 0 1024 1024" version="1.1" xmlns="http://www.w3.org/2000/svg" p-id="2321" xmlns:xlink="http://www.w3.org/1999/xlink" width="128" height="128"><defs><style type="text/css"></style></defs><path d="M545.512727 279.272727c110.778182 0 166.632727 46.545455 166.632728 141.498182s-55.854545 142.429091-167.563637 142.429091h-121.018182V744.727273h-70.749091V279.272727h192.698182zM423.563636 502.690909H539.927273c35.374545 0 60.509091-6.516364 77.265454-19.549091 15.825455-13.032727 24.203636-33.512727 24.203637-62.370909s-8.378182-49.338182-25.134546-61.44c-16.756364-13.032727-41.890909-19.549091-76.334545-19.549091H423.563636V502.690909z" fill="#FFFFFF" p-id="2322"></path><path d="M616.261818 359.330909c-16.756364-13.032727-41.890909-19.549091-76.334545-19.549091H423.563636V502.690909H539.927273c35.374545 0 60.509091-6.516364 77.265454-19.549091 15.825455-13.032727 24.203636-33.512727 24.203637-62.370909-0.930909-28.858182-9.309091-49.338182-25.134546-61.44z" fill="#D24726" p-id="2323"></path><path d="M0 0v1024h1024V0H0z m544.581818 563.2h-121.018182V744.727273h-70.749091V279.272727h192.698182c110.778182 0 166.632727 46.545455 166.632728 141.498182s-55.854545 142.429091-167.563637 142.429091z" fill="#D24726" p-id="2324"></path></svg>