<?xml version="1.0" standalone="no"?><!DOCTYPE svg PUBLIC "-//W3C//DTD SVG 1.1//EN" "http://www.w3.org/Graphics/SVG/1.1/DTD/svg11.dtd"><svg t="1564378699393" class="icon" viewBox="0 0 1024 1024" version="1.1" xmlns="http://www.w3.org/2000/svg" p-id="3465" xmlns:xlink="http://www.w3.org/1999/xlink" width="128" height="128"><defs><style type="text/css"></style></defs><path d="M304.407273 390.050909c25.134545 0 45.614545 5.585455 60.509091 17.687273 15.825455 13.032727 23.272727 30.72 23.272727 54.923636 0 13.032727-3.723636 25.134545-10.24 35.374546-8.378182 11.170909-19.549091 18.618182-32.581818 22.341818v0.930909c22.341818 4.654545 35.374545 19.549091 38.167272 44.683636l4.654546 40.029091c1.861818 15.825455 6.516364 27.927273 14.894545 37.236364h-41.890909c-5.585455-7.447273-9.309091-19.549091-11.170909-33.512727l-4.654545-32.581819c-1.861818-13.963636-5.585455-24.203636-13.032728-30.72-7.447273-6.516364-18.618182-9.309091-33.512727-9.309091h-67.956363V642.327273h-38.167273V390.050909h111.709091z m-73.541818 115.432727h67.956363c16.756364 0 29.789091-3.723636 38.167273-11.170909 8.378182-7.447273 12.101818-17.687273 12.101818-30.72 0-13.963636-4.654545-24.203636-12.101818-30.72-8.378182-6.516364-21.410909-10.24-39.098182-10.24h-67.956364v82.850909zM624.64 390.050909v32.581818h-83.781818V642.327273H502.690909V422.632727h-84.712727v-32.581818h206.661818zM826.647273 390.050909v32.581818H693.527273v73.541818H819.2v32.581819H693.527273V642.327273h-38.167273V390.050909h171.287273z" fill="#FFFFFF" p-id="3466"></path><path d="M0 0v1024h1024V0H0z m360.261818 642.327273c-5.585455-7.447273-9.309091-19.549091-11.170909-33.512728l-3.723636-31.650909c-1.861818-13.963636-5.585455-24.203636-13.032728-30.72-7.447273-6.516364-18.618182-9.309091-33.512727-9.309091h-67.956363V642.327273h-38.167273V390.050909h111.709091c25.134545 0 45.614545 5.585455 60.509091 17.687273 15.825455 13.032727 23.272727 30.72 23.272727 54.923636 0 13.032727-3.723636 25.134545-10.24 35.374546-8.378182 11.170909-19.549091 18.618182-32.581818 22.341818v0.930909c22.341818 4.654545 35.374545 19.549091 38.167272 44.683636l4.654546 40.029091c1.861818 15.825455 6.516364 27.927273 14.894545 37.236364h-42.821818z m264.378182-219.694546h-83.781818V642.327273H502.690909V422.632727h-84.712727v-32.581818h206.661818v32.581818z m202.007273 0H693.527273v73.541818H819.2v32.581819H693.527273V642.327273h-38.167273V390.050909h171.287273v32.581818z" fill="#F07900" p-id="3467"></path><path d="M337.92 432.872727c-8.378182-6.516364-21.410909-10.24-39.098182-10.24h-67.956363v82.850909h67.956363c16.756364 0 29.789091-3.723636 38.167273-11.170909 8.378182-7.447273 12.101818-17.687273 12.101818-30.72 0.930909-13.963636-3.723636-24.203636-11.170909-30.72z" fill="#F07900" p-id="3468"></path></svg>