<?xml version="1.0" standalone="no"?><!DOCTYPE svg PUBLIC "-//W3C//DTD SVG 1.1//EN" "http://www.w3.org/Graphics/SVG/1.1/DTD/svg11.dtd"><svg t="1568973400205" class="icon" viewBox="0 0 1024 1024" version="1.1" xmlns="http://www.w3.org/2000/svg" p-id="23744" xmlns:xlink="http://www.w3.org/1999/xlink" width="200" height="200"><defs><style type="text/css"></style></defs><path d="M511.2 62.3C263.1 62.3 62 263.4 62 511.5s201.1 449.2 449.2 449.2 449.2-201.1 449.2-449.2S759.3 62.3 511.2 62.3z m283.7 732.9c-36.9 36.9-79.8 65.8-127.5 86-49.4 20.9-102 31.5-156.1 31.5S404.5 902.1 355 881.1c-47.8-20.2-90.7-49.1-127.5-86-36.9-36.9-65.8-79.8-86-127.5-20.9-49.4-31.5-102-31.5-156.1 0-54.2 10.6-106.7 31.5-156.1 20.2-47.8 49.1-90.7 86-127.5 36.9-36.9 79.8-65.8 127.5-86 49.4-20.9 102-31.5 156.1-31.5s106.7 10.6 156.1 31.5c47.8 20.2 90.7 49.1 127.5 86 36.9 36.9 65.8 79.8 86 127.5 20.9 49.4 31.5 102 31.5 156.1 0 54.2-10.6 106.7-31.5 156.1-20.1 47.8-49 90.7-85.8 127.6z" fill="#637078" p-id="23745"></path><path d="M261 468.2h504c9.7 0 18.5-5.8 22.2-14.8s1.7-19.3-5.2-26.2l-92-92c-9.4-9.4-24.6-9.4-33.9 0-9.4 9.4-9.4 24.6 0 33.9l51 51H261c-13.3 0-24 10.7-24 24s10.7 24.1 24 24.1zM765 558.2H261c-9.7 0-18.5 5.8-22.2 14.8-3.7 9-1.7 19.3 5.2 26.2l92 92c4.7 4.7 10.8 7 17 7s12.3-2.3 17-7c9.4-9.4 9.4-24.6 0-33.9l-51-51h446c13.3 0 24-10.7 24-24s-10.7-24.1-24-24.1z" fill="#637078" p-id="23746"></path></svg>