<?xml version="1.0" standalone="no"?><!DOCTYPE svg PUBLIC "-//W3C//DTD SVG 1.1//EN" "http://www.w3.org/Graphics/SVG/1.1/DTD/svg11.dtd"><svg t="1568973807404" class="icon" viewBox="0 0 1024 1024" version="1.1" xmlns="http://www.w3.org/2000/svg" p-id="25108" xmlns:xlink="http://www.w3.org/1999/xlink" width="200" height="200"><defs><style type="text/css"></style></defs><path d="M826.368 306.8928H476.5696c-6.8608 0-13.2096-3.3792-16.9984-9.1136l-46.3872-69.12c-3.7888-5.632-10.1376-9.1136-16.9984-9.1136H197.632c-22.6304 0-40.96 18.3296-40.96 40.96v502.784c0 22.6304 18.3296 40.96 40.96 40.96h628.736c22.6304 0 40.96-18.3296 40.96-40.96V347.8528c0-22.6304-18.3296-40.96-40.96-40.96z m0 436.0192c0 11.264-9.216 20.48-20.48 20.48H218.112c-11.264 0-20.48-9.216-20.48-20.48V448.6144h628.736v294.2976z m0-335.2576H197.632V281.088c0-11.264 9.216-20.48 20.48-20.48h161.6896c3.3792 0 6.5536 1.7408 8.4992 4.5056l52.736 78.5408c1.9456 2.8672 5.12 4.5056 8.4992 4.5056l366.592-0.4096c5.632 0 10.24 4.608 10.24 10.24v49.664z" p-id="25109" fill="#ffffff"></path></svg>