<?xml version="1.0" standalone="no"?><!DOCTYPE svg PUBLIC "-//W3C//DTD SVG 1.1//EN" "http://www.w3.org/Graphics/SVG/1.1/DTD/svg11.dtd"><svg t="1568684863572" class="icon" viewBox="0 0 1024 1024" version="1.1" xmlns="http://www.w3.org/2000/svg" p-id="1184" xmlns:xlink="http://www.w3.org/1999/xlink" width="200" height="200"><defs><style type="text/css"></style></defs><path d="M889.6 104.7c-7.6 0-15.2 2.9-21 8.7L401.8 580.1c-11.6 11.6-11.6 30.4 0 42 5.8 5.8 13.4 8.7 21 8.7s15.2-2.9 21-8.7l466.7-466.7c11.6-11.6 11.6-30.4 0-42-5.7-5.8-13.3-8.7-20.9-8.7z" p-id="1185" fill="#637078"></path><path d="M868.6 868.6H155.4V155.4h267.4c7.6 0 15.2-2.9 21-8.7 5.8-5.8 8.7-13.4 8.7-21s-2.9-15.2-8.7-21c-5.8-5.8-13.4-8.7-21-8.7H155.4C122.6 96 96 122.6 96 155.4v713.1c0 32.8 26.6 59.4 59.4 59.4h713.1c32.8 0 59.4-26.6 59.4-59.4V601.1c0-7.6-2.9-15.2-8.7-21-5.8-5.8-13.4-8.7-21-8.7s-15.2 2.9-21 8.7c-5.8 5.8-8.7 13.4-8.7 21v267.5zM868.6 96h-208c-7.6 0-15.2 2.9-21 8.7-5.8 5.8-8.7 13.4-8.7 21s2.9 15.2 8.7 21c5.8 5.8 13.4 8.7 21 8.7h208v208c0 7.6 2.9 15.2 8.7 21 5.8 5.8 13.4 8.7 21 8.7s15.2-2.9 21-8.7c5.8-5.8 8.7-13.4 8.7-21v-208c0-32.8-26.6-59.4-59.4-59.4z" p-id="1186" fill="#637078"></path></svg>