<?xml version="1.0" standalone="no"?><!DOCTYPE svg PUBLIC "-//W3C//DTD SVG 1.1//EN" "http://www.w3.org/Graphics/SVG/1.1/DTD/svg11.dtd"><svg t="1579400780940" class="icon" viewBox="0 0 1024 1024" version="1.1" xmlns="http://www.w3.org/2000/svg" p-id="1385" xmlns:xlink="http://www.w3.org/1999/xlink" width="200" height="200"><defs><style type="text/css"></style></defs><path d="M885.333333 21.333333h-746.666666C74.666667 21.333333 21.333333 74.666667 21.333333 138.666667V448c0 17.066667 14.933333 32 32 32S85.333333 465.066667 85.333333 448V138.666667C85.333333 108.8 108.8 85.333333 138.666667 85.333333h746.666666C915.2 85.333333 938.666667 108.8 938.666667 138.666667V448c0 17.066667 14.933333 32 32 32S1002.666667 465.066667 1002.666667 448V138.666667c0-64-53.333333-117.333333-117.333334-117.333334z" fill="#637078" p-id="1386"></path><path d="M744.533333 691.2l-202.666666 202.666667V330.666667c0-17.066667-14.933333-32-32-32s-32 14.933333-32 32v563.2L277.333333 693.333333c-12.8-12.8-32-12.8-44.8 0-12.8 12.8-12.8 32 0 44.8l253.866667 253.866667v2.133333c2.133333 2.133333 6.4 4.266667 8.533333 6.4 8.533333 2.133333 12.8 2.133333 17.066667 2.133334 4.266667 0 6.4 0 10.666667-2.133334 2.133333 0 2.133333 0 4.266666-2.133333s4.266667-2.133333 6.4-4.266667c0 0 2.133333 0 2.133334-2.133333v-2.133333l256-256c12.8-12.8 12.8-32 0-44.8-12.8-10.666667-34.133333-10.666667-46.933334 2.133333z" fill="#637078" p-id="1387"></path></svg>