<?xml version="1.0" standalone="no"?><!DOCTYPE svg PUBLIC "-//W3C//DTD SVG 1.1//EN" "http://www.w3.org/Graphics/SVG/1.1/DTD/svg11.dtd"><svg t="1568973519479" class="icon" viewBox="0 0 1024 1024" version="1.1" xmlns="http://www.w3.org/2000/svg" p-id="23970" xmlns:xlink="http://www.w3.org/1999/xlink" width="200" height="200"><defs><style type="text/css"></style></defs><path d="M744.7552 521.11872l-58.71616 58.7264-174.92992 174.91968c-0.34816 0.28672-0.7424 0.4352-1.08544 0.73728-1.42848 1.28-3.01568 2.37056-4.736 3.20512-0.5888 0.25088-1.18784 0.64512-1.87904 0.8448-2.22208 0.83456-4.63872 1.3824-7.15264 1.3824H437.59104a21.06368 21.06368 0 0 1-21.07392-21.0688v-58.72128c0.0512-2.46272 0.50176-4.87936 1.3824-7.15264 0.25088-0.58368 0.59392-1.22368 0.93696-1.8688 0.8448-1.72544 1.87392-3.30752 3.15904-4.736l-0.05632 0.0512c0.30208-0.35328 0.39936-0.78848 0.74752-1.13664l174.96576-174.9248 58.71616-58.72128a21.04832 21.04832 0 0 1 29.75744-0.0512l58.6752 58.7264a21.00224 21.00224 0 0 1-0.04608 29.78816z m-132.29056 14.90944l-145.17248 145.16224 28.96384 28.91776 145.27488-145.17248-28.96384-28.96384-0.1024 0.05632z m29.8496-29.80352l28.96384 28.90752 28.91776-28.90752-28.91776-28.91264-28.96384 28.91264z" fill="#637078" p-id="23971"></path><path d="M862.44352 236.45696H304.91648c-41.18528 0-75.05408 33.86368-75.05408 75.04896v557.65504c0 41.1904 33.86368 75.05408 75.05408 75.05408h557.65504c41.1904 0 75.05408-33.86368 75.05408-75.05408V311.50592c-0.13312-41.3184-33.86368-75.04896-75.18208-75.04896z m-4.18304 584.84736c0 24.05888-19.74272 43.80672-43.80672 43.80672H352.768c-24.05888 0-43.8016-19.74272-43.8016-43.80672V359.49056c0-24.05888 19.74272-43.8016 43.8016-43.8016h461.81376c24.05888 0 43.8016 19.74272 43.8016 43.8016v461.81376h-0.12288z" fill="#637078" p-id="23972"></path><path d="M263.33696 739.06688h-20.00384c-24.05888 0-43.8016-19.74272-43.8016-43.8016V233.57952c0-24.05888 19.7376-43.8016 43.8016-43.8016h461.81376c24.05888 0 43.8016 19.74272 43.8016 43.8016v38.57408h79.24224V185.58976c0-41.18528-33.86368-75.04896-75.05408-75.04896H195.34336c-41.18528 0-75.04896 33.86368-75.04896 75.04896v557.66016c0 41.18528 33.86368 75.04896 75.04896 75.04896h67.9936v-79.232z" fill="#637078" p-id="23973"></path></svg>