<?xml version="1.0" standalone="no"?><!DOCTYPE svg PUBLIC "-//W3C//DTD SVG 1.1//EN" "http://www.w3.org/Graphics/SVG/1.1/DTD/svg11.dtd"><svg t="1568974010393" class="icon" viewBox="0 0 1024 1024" version="1.1" xmlns="http://www.w3.org/2000/svg" p-id="25531" xmlns:xlink="http://www.w3.org/1999/xlink" width="200" height="200"><defs><style type="text/css"></style></defs><path d="M682.656 85.344v302.944c21.344 0 42.656-4.256 64-4.256H768v-42.656h85.344v59.744c29.856 8.544 59.744 21.344 85.344 38.4V85.376h-256zM853.344 256H768V170.656h85.344V256zM384 725.344c4.256-81.056 38.4-153.6 85.344-213.344 42.656-51.2 102.4-89.6 170.656-110.944V85.312h-256v640z m85.344-554.688h85.344V256h-85.344V170.656z m0 170.688h85.344v85.344h-85.344v-85.344z m-384 597.312h256V85.312h-256v853.344z m85.312-768H256V256H170.656V170.656z m0 170.688H256v85.344H170.656v-85.344z m0 170.656H256v341.344H170.656V512z" p-id="25532" fill="#637078"></path><path d="M746.656 469.344c-153.6 0-277.344 123.744-277.344 277.344s123.744 277.344 277.344 277.344S1024 900.288 1024 746.688s-123.744-277.344-277.344-277.344z m0 469.312c-106.656 0-192-85.344-192-192s85.344-192 192-192 192 85.344 192 192-85.344 192-192 192z" p-id="25533" fill="#637078"></path><path d="M768 640h-85.344v170.656h170.656v-85.344h-85.344z" p-id="25534" fill="#637078"></path></svg>